# Blender v2.72 (sub 0) OBJ File: ''
# www.blender.org
mtllib first.mtl
o Cube
v 0.566550 -0.966450 -0.071077
v 0.307196 -0.330117 1.027965
v -0.914246 -0.147995 0.634279
v -0.654891 -0.784328 -0.464763
v 0.914246 0.147995 -0.634278
v 0.654891 0.784328 0.464763
v -0.566550 0.966450 0.071076
v -0.307196 0.330117 -1.027965
v 0.436873 -0.648284 0.478444
v -0.044170 -0.875389 -0.267920
v 0.740398 -0.409228 -0.352677
v -0.303525 -0.239056 0.831122
v 0.481043 0.227106 0.746364
v -0.784569 -0.466161 0.084758
v -0.740398 0.409228 0.352677
v -0.481043 -0.227106 -0.746364
v 0.784569 0.466162 -0.084758
v 0.303525 0.239056 -0.831122
v 0.044170 0.875389 0.267919
v -0.436873 0.648284 -0.478444
v -0.173848 -1.449320 0.281601
v 0.173848 0.557223 -0.776637
v 1.096289 -0.091061 0.196843
v -0.129677 0.318167 1.094985
v -0.610721 0.091061 -0.532959
v 0.129677 -0.318167 -0.880689
vt 0.750886 0.398431
vt 0.851859 0.026212
vt 1.000000 0.052424
vt 0.931412 0.764191
vt 0.830911 0.914042
vt 0.670936 0.914315
vt 0.587310 0.000000
vt 0.703718 0.136963
vt 0.657049 0.142326
vt 0.415351 0.289706
vt 0.658347 0.335178
vt 0.659645 0.528029
vt 0.670936 0.720922
vt 0.670936 0.913814
vt 0.510695 0.913851
vt 0.188631 0.783634
vt 0.000000 0.804807
vt 0.000000 0.612541
vt 1.000000 0.232689
vt 1.000000 0.412953
vt 0.142089 0.271745
vt 0.252347 0.000000
vt 0.350454 0.181883
vt 0.703718 0.000000
vt 0.670936 0.721446
vt 0.670936 0.528576
vt 0.990886 0.528029
vt 0.990886 0.720899
vt 0.990886 0.913768
vt 0.156396 0.541167
vt 0.033138 0.434319
vt 0.000000 0.266529
vt 0.284178 0.276961
vt 0.317316 0.444751
vt 0.350454 0.612541
vt 0.208365 0.607325
vt 0.506347 0.528029
vt 0.353049 0.528029
vt 0.503751 0.142326
vt 0.351752 0.335178
vt 0.546546 0.805206
vt 0.350454 0.913888
vt 0.350454 0.528103
vt 0.510695 0.528066
vt 0.670936 0.528029
vt 0.319146 0.807734
vt 0.159573 0.614004
vt 0.319146 1.000000
vt 0.159573 0.998537
vt 0.000000 0.997074
vt 0.851859 0.386741
vt 0.703718 0.180265
vt 0.830911 0.528303
vt 0.350454 0.142326
vt 0.350454 0.720996
vt 0.319146 0.615467
vn -0.334500 -0.419100 0.844100
vn -0.127600 0.845000 -0.519300
vn 0.883800 0.464000 -0.060100
vn -0.053100 0.833300 0.550300
vn -0.942300 0.140500 -0.303700
vn 0.098900 -0.750000 -0.654000
vn -0.854000 -0.511600 0.094600
vn 0.784500 -0.512100 -0.349800
vn 0.223500 0.939800 -0.258500
vn 0.332500 0.289200 -0.897700
vn 0.268200 0.859800 -0.434500
vn 0.698400 0.137100 0.702500
vn 0.852800 -0.421800 -0.308100
vn 0.942300 -0.140500 0.303700
vn -0.639600 0.496200 0.587100
vn 0.376000 -0.489800 0.786600
vn -0.853000 0.002400 -0.521900
vn -0.958500 0.193100 -0.209700
vn -0.870000 0.309000 -0.384200
vn -0.191700 0.146100 -0.970500
vn 0.518300 -0.509000 -0.687200
vn -0.601200 0.261400 -0.755100
vn -0.252000 -0.372700 -0.893100
vn 0.122100 -0.700700 -0.703000
vn -0.268200 -0.859800 0.434500
vn 0.627600 -0.600300 0.495700
vn 0.504100 0.793600 -0.340500
vn -0.441800 -0.026500 -0.896700
vn 0.676400 -0.556900 0.482000
vn 0.791300 0.142100 -0.594700
vn -0.333400 -0.316500 0.888100
vn -0.200100 0.490900 0.847900
vn 0.507700 0.257100 0.822300
vn -0.968900 0.029700 -0.245800
vn 0.200100 -0.490900 -0.847900
vn 0.305300 -0.010600 -0.952200
usemtl Material
s off
f 21/1/1 12/2/1 3/3/1
f 22/4/2 20/5/2 7/6/2
f 23/7/3 17/8/3 6/9/3
f 24/10/4 19/11/4 7/12/4
f 20/13/5 8/14/5 16/15/5
f 26/16/6 10/17/6 4/18/6
f 21/1/7 14/19/7 4/20/7
f 9/21/8 21/22/8 10/23/8
f 2/24/1 12/2/1 21/1/1
f 22/4/9 19/25/9 6/26/9
f 5/27/10 18/28/10 22/4/10
f 18/28/11 8/29/11 20/5/11
f 23/30/12 13/31/12 2/32/12
f 1/33/13 11/34/13 23/30/13
f 11/34/14 5/35/14 17/36/14
f 24/10/15 15/37/15 3/38/15
f 13/39/16 24/10/16 12/40/16
f 6/9/4 19/11/4 24/10/4
f 25/41/17 16/15/17 4/42/17
f 3/43/18 15/44/18 25/41/18
f 7/45/19 20/13/19 25/41/19
f 18/46/20 26/16/20 16/47/20
f 5/48/21 11/49/21 26/16/21
f 1/50/6 10/17/6 26/16/6
f 14/19/7 21/1/7 3/3/7
f 19/25/9 22/4/9 7/6/9
f 13/39/12 23/7/12 6/9/12
f 15/37/15 24/10/15 7/12/15
f 25/41/22 20/13/22 16/15/22
f 16/47/23 26/16/23 4/18/23
f 10/51/24 21/1/24 4/20/24
f 1/33/25 9/21/25 10/23/25
f 9/52/26 2/24/26 21/1/26
f 17/53/27 22/4/27 6/26/27
f 17/53/27 5/27/27 22/4/27
f 22/4/28 18/28/28 20/5/28
f 9/21/29 23/30/29 2/32/29
f 9/21/29 1/33/29 23/30/29
f 23/30/30 11/34/30 17/36/30
f 12/40/31 24/10/31 3/38/31
f 2/54/32 13/39/32 12/40/32
f 13/39/33 6/9/33 24/10/33
f 14/55/34 25/41/34 4/42/34
f 14/55/34 3/43/34 25/41/34
f 15/44/18 7/45/18 25/41/18
f 8/56/35 18/46/35 16/47/35
f 18/46/36 5/48/36 26/16/36
f 11/49/21 1/50/21 26/16/21
